<?xml version="1.0"?>
<svg xmlns="http://www.w3.org/2000/svg" xmlns:xlink="http://www.w3.org/1999/xlink" xmlns:svgjs="http://svgjs.com/svgjs" version="1.1" width="512" height="512" x="0" y="0" viewBox="0 0 491.996 491.996" style="enable-background:new 0 0 512 512" xml:space="preserve" class=""><g transform="matrix(0.6000000000000001,0,0,0.6000000000000001,98.39920024871836,98.3992004394531)">
<g xmlns="http://www.w3.org/2000/svg">
	<g>
		<path d="M484.132,124.986l-16.116-16.228c-5.072-5.068-11.82-7.86-19.032-7.86c-7.208,0-13.964,2.792-19.036,7.86l-183.84,183.848    L62.056,108.554c-5.064-5.068-11.82-7.856-19.028-7.856s-13.968,2.788-19.036,7.856l-16.12,16.128    c-10.496,10.488-10.496,27.572,0,38.06l219.136,219.924c5.064,5.064,11.812,8.632,19.084,8.632h0.084    c7.212,0,13.96-3.572,19.024-8.632l218.932-219.328c5.072-5.064,7.856-12.016,7.864-19.224    C491.996,136.902,489.204,130.046,484.132,124.986z" fill="#004aad" data-original="#000000" style="" class=""/>
	</g>
</g>
<g xmlns="http://www.w3.org/2000/svg">
</g>
<g xmlns="http://www.w3.org/2000/svg">
</g>
<g xmlns="http://www.w3.org/2000/svg">
</g>
<g xmlns="http://www.w3.org/2000/svg">
</g>
<g xmlns="http://www.w3.org/2000/svg">
</g>
<g xmlns="http://www.w3.org/2000/svg">
</g>
<g xmlns="http://www.w3.org/2000/svg">
</g>
<g xmlns="http://www.w3.org/2000/svg">
</g>
<g xmlns="http://www.w3.org/2000/svg">
</g>
<g xmlns="http://www.w3.org/2000/svg">
</g>
<g xmlns="http://www.w3.org/2000/svg">
</g>
<g xmlns="http://www.w3.org/2000/svg">
</g>
<g xmlns="http://www.w3.org/2000/svg">
</g>
<g xmlns="http://www.w3.org/2000/svg">
</g>
<g xmlns="http://www.w3.org/2000/svg">
</g>
</g></svg>
