<?xml version="1.0" encoding="UTF-8"?>
<svg xmlns="http://www.w3.org/2000/svg" xmlns:xlink="http://www.w3.org/1999/xlink" viewBox="0 0 24 24" width="24px" height="24px">
<g id="surface49795370">
<path style=" stroke:none;fill-rule:nonzero;fill:rgb(100%,100%,100%);fill-opacity:1;" d="M 19.078125 4.929688 C 16.996094 2.84375 14.15625 1.792969 11.171875 2.035156 C 7.164062 2.355469 3.648438 5.144531 2.472656 8.988281 C 1.632812 11.738281 1.988281 14.605469 3.355469 16.976562 L 2.058594 21.28125 C 1.933594 21.691406 2.3125 22.082031 2.730469 21.972656 L 7.234375 20.765625 C 8.691406 21.558594 10.335938 21.980469 12.007812 21.980469 L 12.011719 21.980469 C 16.203125 21.980469 20.082031 19.414062 21.421875 15.4375 C 22.726562 11.5625 21.761719 7.617188 19.078125 4.929688 Z M 16.898438 15.554688 C 16.691406 16.136719 15.671875 16.699219 15.214844 16.738281 C 14.753906 16.78125 14.324219 16.945312 12.21875 16.117188 C 9.679688 15.117188 8.078125 12.515625 7.953125 12.347656 C 7.828125 12.183594 6.9375 10.996094 6.9375 9.769531 C 6.9375 8.539062 7.582031 7.9375 7.808594 7.6875 C 8.039062 7.4375 8.308594 7.375 8.476562 7.375 C 8.640625 7.375 8.808594 7.375 8.953125 7.382812 C 9.132812 7.386719 9.328125 7.398438 9.515625 7.8125 C 9.738281 8.304688 10.222656 9.539062 10.285156 9.664062 C 10.347656 9.789062 10.390625 9.9375 10.304688 10.101562 C 10.222656 10.269531 10.179688 10.371094 10.058594 10.519531 C 9.933594 10.664062 9.796875 10.84375 9.683594 10.953125 C 9.558594 11.078125 9.429688 11.214844 9.574219 11.464844 C 9.71875 11.714844 10.21875 12.53125 10.960938 13.191406 C 11.914062 14.042969 12.71875 14.304688 12.96875 14.429688 C 13.21875 14.554688 13.363281 14.535156 13.507812 14.367188 C 13.65625 14.203125 14.132812 13.640625 14.300781 13.390625 C 14.464844 13.140625 14.632812 13.183594 14.859375 13.265625 C 15.089844 13.347656 16.316406 13.953125 16.566406 14.078125 C 16.816406 14.203125 16.980469 14.265625 17.042969 14.367188 C 17.105469 14.472656 17.105469 14.972656 16.898438 15.554688 Z M 16.898438 15.554688 "/>
</g>
</svg>
