<svg width="139" height="98" viewBox="0 0 139 98" fill="none" xmlns="http://www.w3.org/2000/svg">
<ellipse cx="54.5" cy="43" rx="54.5" ry="43" fill="#7ED957"/>
<ellipse cx="84.5" cy="55" rx="54.5" ry="43" fill="#38B6FF"/>
<ellipse cx="69.5" cy="49" rx="54.5" ry="43" fill="white"/>
<path d="M81.4989 73.0346H56.1083L53.9775 47.4723C53.4849 41.5502 58.1578 36.4721 64.0992 36.4721H73.5079C79.4504 36.4721 84.1233 41.5502 83.6297 47.4723L81.4989 73.0346Z" fill="white"/>
<path d="M80.0252 39.3098C78.5536 38.477 76.8534 37.9955 75.0314 37.9955H63.4147C58.6616 37.9955 54.923 42.058 55.3181 46.7959L57.5048 73.0346H80.9911L83.1219 47.4723C83.3869 44.2833 82.1469 41.3481 80.0252 39.3098Z" fill="#FFE57F"/>
<path d="M80.533 39.3098C79.7449 38.8639 78.8877 38.5288 77.9858 38.3043C78.3362 38.4536 78.6805 38.6161 79.0096 38.802C81.1312 40.8403 82.3713 43.7755 82.1062 46.9646L80.3786 66.8728C80.1501 69.4972 77.9533 71.5112 75.3188 71.5112H56.9543L56.9969 73.0346H81.4989L83.6297 47.4724C83.8947 44.2833 82.6547 41.3481 80.533 39.3098Z" fill="#FFD740"/>
<path d="M61.1864 64.9096H82.1763L83.6297 47.4723C83.6825 46.8396 83.6642 46.2211 83.6043 45.6127H61.1864C60.0651 45.6127 59.1551 46.5227 59.1551 47.644V62.8784C59.1551 63.9996 60.0651 64.9096 61.1864 64.9096Z" fill="white"/>
<path d="M83.6033 45.6127H82.0798C82.1408 46.2201 82.158 46.8396 82.1052 47.4723L80.6529 64.9096H82.1763L83.6297 47.4723C83.6815 46.8396 83.6642 46.2201 83.6033 45.6127Z" fill="#ECEFF1"/>
<path d="M73.3739 29.3627H64.2333V36.4721H73.3739V29.3627Z" fill="#ECEFF1"/>
<path d="M73.8817 36.9799H63.7254V28.8549H73.8817V36.9799ZM64.7411 35.9643H72.8661V29.8705H64.7411V35.9643Z" fill="#37474F"/>
<path d="M70.327 24.2846H67.2801V29.3627H70.327V24.2846Z" fill="#ECEFF1"/>
<path d="M70.8348 29.8705H66.7723V23.7768H70.8348V29.8705ZM67.7879 28.8549H69.8192V24.7924H67.7879V28.8549Z" fill="#37474F"/>
<path d="M66.8058 22.2534H65.2489C64.6883 22.2534 64.2333 22.7084 64.2333 23.269C64.2333 23.8296 64.6883 24.2846 65.2489 24.2846H69.4932C72.0759 24.2846 74.6546 24.4979 77.2028 24.9224L79.4676 25.3002L80.4833 24.2846L79.689 24.0571C75.4996 22.8607 71.1629 22.2534 66.8058 22.2534Z" fill="#ECEFF1"/>
<path d="M79.6413 25.8446L77.1185 25.4241C74.6069 25.0047 72.0404 24.7924 69.4922 24.7924H65.2489C64.409 24.7924 63.7254 24.1089 63.7254 23.269C63.7254 22.4291 64.409 21.7455 65.2489 21.7455H66.8058C71.2116 21.7455 75.593 22.359 79.8282 23.5686L81.4522 24.0337L79.6413 25.8446ZM65.2489 22.7612C64.9686 22.7612 64.7411 22.9887 64.7411 23.269C64.7411 23.5493 64.9686 23.7768 65.2489 23.7768H69.4932C72.0972 23.7768 74.7196 23.9941 77.2861 24.4217L79.294 24.7559L79.5144 24.5355C75.3808 23.3584 71.105 22.7612 66.8058 22.7612H65.2489Z" fill="#37474F"/>
<path d="M82.1763 65.4174H61.1864C59.7869 65.4174 58.6473 64.2779 58.6473 62.8784V47.644C58.6473 46.2445 59.7869 45.1049 61.1864 45.1049H82.0798V46.1205H61.1864C60.3465 46.1205 59.6629 46.8041 59.6629 47.644V62.8784C59.6629 63.7183 60.3465 64.4018 61.1864 64.4018H82.1763V65.4174Z" fill="#37474F"/>
<path d="M88.6083 73.0346H73.3739C71.1304 73.0346 69.3114 71.2156 69.3114 68.9721V61.8627C69.3114 59.6192 71.1304 57.8002 73.3739 57.8002H88.6083C90.8518 57.8002 92.6708 59.6192 92.6708 61.8627V68.9721C92.6708 71.2156 90.8518 73.0346 88.6083 73.0346Z" fill="white"/>
<path d="M73.8817 59.3237C72.1988 59.3237 70.8348 60.6877 70.8348 62.3705V70.4956C70.8348 71.2248 71.042 71.8991 71.3792 72.4902C71.9703 72.8264 72.6457 73.0346 73.3739 73.0346H88.6083C90.8518 73.0346 92.6708 71.2156 92.6708 68.9721V61.8627C92.6708 61.1335 92.4626 60.4591 92.1264 59.868C91.5353 59.5319 90.8609 59.3237 90.1317 59.3237H73.8817Z" fill="#FF8A80"/>
<path d="M92.1264 59.8681C91.7882 59.6761 91.4195 59.5319 91.0326 59.4385C91.1026 59.7279 91.1473 60.0275 91.1473 60.3393V68.9721C91.1473 70.3747 90.0108 71.5112 88.6083 71.5112H71.8504C71.5386 71.5112 71.239 71.4665 70.9496 71.3964C71.043 71.7834 71.1862 72.1521 71.3792 72.4903C71.9703 72.8264 72.6457 73.0346 73.3739 73.0346H88.6083C90.8518 73.0346 92.6708 71.2157 92.6708 68.9721V61.8628C92.6708 61.1336 92.4626 60.4592 92.1264 59.8681Z" fill="#FF5252"/>
<path d="M88.6083 73.5424H73.3739C70.8541 73.5424 68.8036 71.4919 68.8036 68.9721V61.8627C68.8036 59.343 70.8541 57.2924 73.3739 57.2924H88.6083C91.128 57.2924 93.1786 59.343 93.1786 61.8627V68.9721C93.1786 71.4919 91.128 73.5424 88.6083 73.5424ZM73.3739 58.308C71.4137 58.308 69.8192 59.9026 69.8192 61.8627V68.9721C69.8192 70.9323 71.4137 72.5268 73.3739 72.5268H88.6083C90.5684 72.5268 92.1629 70.9323 92.1629 68.9721V61.8627C92.1629 59.9026 90.5684 58.308 88.6083 58.308H73.3739Z" fill="#37474F"/>
<path d="M86.0692 68.4643H75.9129C75.3523 68.4643 74.8973 68.0093 74.8973 67.4487V63.3862C74.8973 62.8255 75.3523 62.3705 75.9129 62.3705H86.0692C86.6298 62.3705 87.0848 62.8255 87.0848 63.3862V67.4487C87.0848 68.0093 86.6298 68.4643 86.0692 68.4643Z" fill="#FF5252"/>
<path d="M56.1083 73.0346H45.952C45.3914 73.0346 44.9364 72.5796 44.9364 72.019V43.5815C44.9364 43.0209 45.3914 42.5659 45.952 42.5659H56.1083C56.6689 42.5659 57.1239 43.0209 57.1239 43.5815V72.019C57.1239 72.5796 56.6689 73.0346 56.1083 73.0346Z" fill="white"/>
<path d="M46.4598 44.0893V73.0346H56.1083C56.6689 73.0346 57.1239 72.5796 57.1239 72.019V44.0893H46.4598Z" fill="#84FFFF"/>
<path d="M55.6005 44.0893V71.5112H46.4598V73.0346H56.1083C56.6689 73.0346 57.1239 72.5796 57.1239 72.019V44.0893H55.6005Z" fill="#18FFFF"/>
<path d="M57.1239 48.6596H46.9676V66.9409H57.1239V48.6596Z" fill="#CCFF90"/>
<path d="M57.1239 48.6596H55.6004V66.9409H57.1239V48.6596Z" fill="#B2FF59"/>
<path d="M84.1355 47.514C84.3823 44.5504 83.3697 41.5959 81.3557 39.4083C79.3417 37.2196 76.4817 35.9643 73.508 35.9643H64.0992C61.1255 35.9643 58.2644 37.2196 56.2515 39.4083C55.7863 39.9141 55.3801 40.4645 55.0246 41.0424H56.1083C56.1509 41.0424 56.1926 41.0526 56.2352 41.0556C56.4708 40.7225 56.7207 40.3985 56.999 40.0959C58.821 38.1154 61.4088 36.9799 64.0992 36.9799H73.508C76.1984 36.9799 78.7862 38.1154 80.6082 40.0948C82.4302 42.0753 83.3463 44.7484 83.1239 47.4297L82.3866 56.2768H83.4052L84.1355 47.514Z" fill="#37474F"/>
<path d="M56.1083 73.5424H45.952C45.1121 73.5424 44.4286 72.8589 44.4286 72.019V43.5815C44.4286 42.7416 45.1121 42.058 45.952 42.058H56.1083C56.9482 42.058 57.6317 42.7416 57.6317 43.5815V72.019C57.6317 72.8589 56.9482 73.5424 56.1083 73.5424ZM45.952 43.0737C45.6717 43.0737 45.4442 43.3012 45.4442 43.5815V72.019C45.4442 72.2993 45.6717 72.5268 45.952 72.5268H56.1083C56.3886 72.5268 56.6161 72.2993 56.6161 72.019V43.5815C56.6161 43.3012 56.3886 43.0737 56.1083 43.0737H45.952Z" fill="#37474F"/>
<path d="M54.077 36.4721H47.9833V42.5659H54.077V36.4721Z" fill="#ECEFF1"/>
<path d="M54.5848 43.0737H47.4754V35.9643H54.5848V43.0737ZM48.4911 42.058H53.5692V36.9799H48.4911V42.058Z" fill="#37474F"/>
<path d="M53.0614 31.394H48.9989V36.4721H53.0614V31.394Z" fill="#ECEFF1"/>
<path d="M53.5692 36.9799H48.4911V30.8862H53.5692V36.9799ZM49.5067 35.9643H52.5536V31.9018H49.5067V35.9643Z" fill="#37474F"/>
<path d="M49.5067 36.9799H48.4911V42.058H49.5067V36.9799Z" fill="white"/>
<path d="M53.5692 36.9799H52.5536V42.058H53.5692V36.9799Z" fill="#CFD8DC"/>
<path d="M52.5536 31.9018H51.5379V35.9643H52.5536V31.9018Z" fill="#CFD8DC"/>
<path d="M52.5536 32.9174H51.5379V33.933H52.5536V32.9174Z" fill="#37474F"/>
<path d="M55.6004 67.4487H46.4598V48.1518H55.6004V49.1674H47.4754V66.433H55.6004V67.4487Z" fill="#37474F"/>
<path d="M55.6005 56.7846H54.077V54.7534H52.0458V56.7846H50.0145V58.8159H52.0458V60.8471H54.077V58.8159H55.6005V56.7846Z" fill="#ECEFF1"/>
<path d="M54.5848 61.3549H51.5379V59.3237H49.5067V56.2768H51.5379V54.2455H54.5848V56.2768H55.6005V57.2924H53.5692V55.2612H52.5536V57.2924H50.5223V58.308H52.5536V60.3393H53.5692V58.308H55.6005V59.3237H54.5848V61.3549Z" fill="#37474F"/>
<path d="M96.2254 30.3784C97.0668 30.3784 97.7489 29.6963 97.7489 28.8549C97.7489 28.0135 97.0668 27.3315 96.2254 27.3315C95.3841 27.3315 94.702 28.0135 94.702 28.8549C94.702 29.6963 95.3841 30.3784 96.2254 30.3784Z" fill="white"/>
<path d="M96.2254 30.8862C95.1052 30.8862 94.1942 29.9752 94.1942 28.8549C94.1942 27.7347 95.1052 26.8237 96.2254 26.8237C97.3457 26.8237 98.2567 27.7347 98.2567 28.8549C98.2567 29.9752 97.3457 30.8862 96.2254 30.8862ZM96.2254 27.8393C95.6658 27.8393 95.2098 28.2953 95.2098 28.8549C95.2098 29.4145 95.6658 29.8705 96.2254 29.8705C96.7851 29.8705 97.2411 29.4145 97.2411 28.8549C97.2411 28.2953 96.7851 27.8393 96.2254 27.8393Z" fill="#37474F"/>
<path d="M91.6551 45.6127C92.216 45.6127 92.6708 45.158 92.6708 44.5971C92.6708 44.0362 92.216 43.5815 91.6551 43.5815C91.0942 43.5815 90.6395 44.0362 90.6395 44.5971C90.6395 45.158 91.0942 45.6127 91.6551 45.6127Z" fill="white"/>
<path d="M91.6551 46.1205C90.8152 46.1205 90.1317 45.437 90.1317 44.5971C90.1317 43.7572 90.8152 43.0737 91.6551 43.0737C92.4951 43.0737 93.1786 43.7572 93.1786 44.5971C93.1786 45.437 92.4951 46.1205 91.6551 46.1205ZM91.6551 44.0893C91.3748 44.0893 91.1473 44.3168 91.1473 44.5971C91.1473 44.8774 91.3748 45.1049 91.6551 45.1049C91.9354 45.1049 92.1629 44.8774 92.1629 44.5971C92.1629 44.3168 91.9354 44.0893 91.6551 44.0893Z" fill="#37474F"/>
<path d="M92.6708 22.2534C93.2317 22.2534 93.6864 21.7986 93.6864 21.2377C93.6864 20.6768 93.2317 20.2221 92.6708 20.2221C92.1098 20.2221 91.6551 20.6768 91.6551 21.2377C91.6551 21.7986 92.1098 22.2534 92.6708 22.2534Z" fill="white"/>
<path d="M92.6708 22.7612C91.8308 22.7612 91.1473 22.0777 91.1473 21.2377C91.1473 20.3978 91.8308 19.7143 92.6708 19.7143C93.5107 19.7143 94.1942 20.3978 94.1942 21.2377C94.1942 22.0777 93.5107 22.7612 92.6708 22.7612ZM92.6708 20.7299C92.3904 20.7299 92.1629 20.9574 92.1629 21.2377C92.1629 21.518 92.3904 21.7455 92.6708 21.7455C92.9511 21.7455 93.1786 21.518 93.1786 21.2377C93.1786 20.9574 92.9511 20.7299 92.6708 20.7299Z" fill="#37474F"/>
<path d="M87.0848 27.3315C87.9262 27.3315 88.6083 26.6494 88.6083 25.808C88.6083 24.9667 87.9262 24.2846 87.0848 24.2846C86.2435 24.2846 85.5614 24.9667 85.5614 25.808C85.5614 26.6494 86.2435 27.3315 87.0848 27.3315Z" fill="white"/>
<path d="M87.0848 27.8393C85.9646 27.8393 85.0536 26.9283 85.0536 25.808C85.0536 24.6878 85.9646 23.7768 87.0848 23.7768C88.2051 23.7768 89.1161 24.6878 89.1161 25.808C89.1161 26.9283 88.2051 27.8393 87.0848 27.8393ZM87.0848 24.7924C86.5252 24.7924 86.0692 25.2484 86.0692 25.808C86.0692 26.3677 86.5252 26.8237 87.0848 26.8237C87.6444 26.8237 88.1004 26.3677 88.1004 25.808C88.1004 25.2484 87.6444 24.7924 87.0848 24.7924Z" fill="#37474F"/>
<path d="M86.577 38.5034C88.2597 38.5034 89.6239 37.1392 89.6239 35.4565C89.6239 33.7737 88.2597 32.4096 86.577 32.4096C84.8943 32.4096 83.5301 33.7737 83.5301 35.4565C83.5301 37.1392 84.8943 38.5034 86.577 38.5034Z" fill="white"/>
<path d="M89.2857 36.853C88.7789 37.833 87.7562 38.5034 86.577 38.5034C84.8941 38.5034 83.5301 37.1394 83.5301 35.4565C83.5301 33.7736 84.8941 32.4096 86.577 32.4096C86.7497 32.4096 86.9193 32.4238 87.0848 32.4523L89.2857 36.853Z" fill="white"/>
<path d="M86.577 39.0112C84.6168 39.0112 83.0223 37.4166 83.0223 35.4565C83.0223 33.4963 84.6168 31.9018 86.577 31.9018C86.7791 31.9018 86.9772 31.9191 87.1691 31.9505L87.0005 32.952C86.8624 32.9296 86.7212 32.9174 86.577 32.9174C85.1775 32.9174 84.0379 34.057 84.0379 35.4565C84.0379 36.856 85.1775 37.9955 86.577 37.9955C87.5307 37.9955 88.396 37.4684 88.8347 36.6204L89.7376 37.0866C89.1232 38.2738 87.9115 39.0112 86.577 39.0112Z" fill="#37474F"/>
<path d="M90.6395 35.4565C91.7613 35.4565 92.6708 34.5471 92.6708 33.4252C92.6708 32.3034 91.7613 31.394 90.6395 31.394C89.5177 31.394 88.6083 32.3034 88.6083 33.4252C88.6083 34.5471 89.5177 35.4565 90.6395 35.4565Z" fill="white"/>
<path d="M90.6395 35.9643C89.24 35.9643 88.1004 34.8248 88.1004 33.4252C88.1004 32.0257 89.24 30.8862 90.6395 30.8862C92.039 30.8862 93.1786 32.0257 93.1786 33.4252C93.1786 34.8248 92.039 35.9643 90.6395 35.9643ZM90.6395 31.9018C89.7996 31.9018 89.1161 32.5853 89.1161 33.4252C89.1161 34.2652 89.7996 34.9487 90.6395 34.9487C91.4794 34.9487 92.1629 34.2652 92.1629 33.4252C92.1629 32.5853 91.4794 31.9018 90.6395 31.9018Z" fill="#37474F"/>
<path d="M50.5223 31.9018H49.5067V35.9643H50.5223V31.9018Z" fill="white"/>
<path d="M97.2411 72.5268H54.077V73.5424H97.2411V72.5268Z" fill="#37474F"/>
<path d="M99.2723 72.5268H98.2567V73.5424H99.2723V72.5268Z" fill="#37474F"/>
</svg>
