<svg width="139" height="98" viewBox="0 0 139 98" fill="none" xmlns="http://www.w3.org/2000/svg">
<ellipse cx="54.5" cy="43" rx="54.5" ry="43" fill="#7ED957"/>
<ellipse cx="84.5" cy="55" rx="54.5" ry="43" fill="#38B6FF"/>
<ellipse cx="69.5" cy="49" rx="54.5" ry="43" fill="white"/>
<path fill-rule="evenodd" clip-rule="evenodd" d="M60.081 40.103C59.9343 40.2863 59.751 40.378 59.531 40.378H59.025L59.718 37.155H60.213C60.433 37.155 60.576 37.2247 60.642 37.364C60.708 37.496 60.741 37.661 60.741 37.859C60.741 38.0717 60.719 38.321 60.675 38.607C60.631 38.893 60.5577 39.168 60.455 39.432C60.3597 39.696 60.235 39.9197 60.081 40.103ZM58.376 43.392L58.871 41.082H59.498C60.1067 41.082 60.6237 41.0087 61.049 40.862C61.4743 40.7153 61.819 40.5173 62.083 40.268C62.3543 40.0113 62.5487 39.7143 62.666 39.377C62.7907 39.0323 62.853 38.6693 62.853 38.288C62.853 37.8773 62.7833 37.551 62.644 37.309C62.5047 37.0597 62.3103 36.869 62.061 36.737C61.8117 36.605 61.5147 36.517 61.17 36.473C60.8253 36.429 60.444 36.407 60.026 36.407H57.485L56 43.392H58.376ZM64.9277 41.643C64.9424 41.4963 64.9644 41.3423 64.9937 41.181H68.0847C68.202 41.0197 68.29 40.8253 68.3487 40.598C68.4074 40.3633 68.4367 40.147 68.4367 39.949C68.4367 39.465 68.2497 39.1093 67.8757 38.882C67.509 38.6547 66.959 38.541 66.2257 38.541C65.551 38.541 64.9864 38.6217 64.5317 38.783C64.0844 38.9443 63.725 39.1607 63.4537 39.432C63.1897 39.696 62.999 40.0003 62.8817 40.345C62.7717 40.6897 62.7167 41.0417 62.7167 41.401C62.7167 41.797 62.7827 42.1307 62.9147 42.402C63.054 42.666 63.241 42.8787 63.4757 43.04C63.7104 43.2013 63.9854 43.315 64.3007 43.381C64.616 43.447 64.957 43.48 65.3237 43.48C65.5217 43.48 65.7307 43.469 65.9507 43.447C66.1707 43.4323 66.387 43.4067 66.5997 43.37C66.8124 43.326 67.014 43.271 67.2047 43.205C67.3954 43.139 67.564 43.0583 67.7107 42.963L67.9967 41.786H66.1927C66.1487 41.9327 66.0864 42.0647 66.0057 42.182C65.9324 42.2993 65.8517 42.3983 65.7637 42.479C65.683 42.5597 65.5987 42.622 65.5107 42.666C65.43 42.71 65.3567 42.732 65.2907 42.732C65.2027 42.732 65.133 42.71 65.0817 42.666C65.0377 42.6147 65.001 42.556 64.9717 42.49C64.9497 42.4167 64.935 42.3397 64.9277 42.259C64.9204 42.1783 64.9167 42.105 64.9167 42.039C64.9167 41.9217 64.9204 41.7897 64.9277 41.643ZM66.3467 39.41C66.42 39.4907 66.4567 39.6447 66.4567 39.872C66.4567 39.9527 66.4494 40.0407 66.4347 40.136C66.4274 40.2313 66.4164 40.3193 66.4017 40.4C66.387 40.4953 66.3724 40.587 66.3577 40.675H65.1037C65.1477 40.4917 65.2027 40.3193 65.2687 40.158C65.3347 39.9893 65.408 39.8427 65.4887 39.718C65.5694 39.586 65.6574 39.4833 65.7527 39.41C65.8554 39.3293 65.9654 39.289 66.0827 39.289C66.1854 39.289 66.2734 39.3293 66.3467 39.41ZM75.4423 36H73.1873L72.4723 39.377H72.3953C72.3513 39.201 72.2817 39.058 72.1863 38.948C72.091 38.838 71.981 38.7537 71.8563 38.695C71.739 38.6363 71.6143 38.596 71.4823 38.574C71.3503 38.552 71.2257 38.541 71.1083 38.541C70.7343 38.541 70.4153 38.6143 70.1513 38.761C69.8873 38.9003 69.6637 39.08 69.4803 39.3C69.3043 39.52 69.1613 39.7657 69.0513 40.037C68.9487 40.301 68.868 40.5613 68.8093 40.818C68.758 41.0673 68.725 41.2983 68.7103 41.511C68.6957 41.7163 68.6883 41.8667 68.6883 41.962C68.6883 42.182 68.714 42.3873 68.7653 42.578C68.8167 42.7613 68.8973 42.919 69.0073 43.051C69.1247 43.183 69.2713 43.2893 69.4473 43.37C69.6307 43.4433 69.8507 43.48 70.1073 43.48C70.3567 43.48 70.5767 43.4507 70.7673 43.392C70.958 43.3407 71.123 43.2747 71.2623 43.194C71.4017 43.106 71.5153 43.018 71.6033 42.93C71.6987 42.8347 71.7683 42.754 71.8123 42.688H71.8893L72.0873 43.392H73.8693L75.4423 36ZM71.4053 39.916C71.5227 39.718 71.6693 39.619 71.8453 39.619C71.9553 39.619 72.0507 39.663 72.1313 39.751C72.2193 39.8317 72.289 39.9123 72.3403 39.993L71.9113 41.995C71.882 42.0317 71.8453 42.0757 71.8013 42.127C71.7573 42.1783 71.7023 42.2297 71.6363 42.281C71.5777 42.325 71.5117 42.3653 71.4383 42.402C71.3723 42.4313 71.3027 42.446 71.2293 42.446C71.1047 42.446 71.0203 42.3983 70.9763 42.303C70.9323 42.2003 70.9103 42.0757 70.9103 41.929C70.9103 41.8043 70.925 41.6137 70.9543 41.357C70.991 41.1003 71.046 40.8437 71.1193 40.587C71.1927 40.3303 71.288 40.1067 71.4053 39.916ZM77.292 41.643C77.3066 41.4963 77.3286 41.3423 77.358 41.181H80.449C80.5663 41.0197 80.6543 40.8253 80.713 40.598C80.7716 40.3633 80.801 40.147 80.801 39.949C80.801 39.465 80.614 39.1093 80.24 38.882C79.8733 38.6547 79.3233 38.541 78.59 38.541C77.9153 38.541 77.3506 38.6217 76.896 38.783C76.4486 38.9443 76.0893 39.1607 75.818 39.432C75.554 39.696 75.3633 40.0003 75.246 40.345C75.136 40.6897 75.081 41.0417 75.081 41.401C75.081 41.797 75.147 42.1307 75.279 42.402C75.4183 42.666 75.6053 42.8787 75.84 43.04C76.0746 43.2013 76.3496 43.315 76.665 43.381C76.9803 43.447 77.3213 43.48 77.688 43.48C77.886 43.48 78.095 43.469 78.315 43.447C78.535 43.4323 78.7513 43.4067 78.964 43.37C79.1766 43.326 79.3783 43.271 79.569 43.205C79.7596 43.139 79.9283 43.0583 80.075 42.963L80.361 41.786H78.557C78.513 41.9327 78.4506 42.0647 78.37 42.182C78.2966 42.2993 78.216 42.3983 78.128 42.479C78.0473 42.5597 77.963 42.622 77.875 42.666C77.7943 42.71 77.721 42.732 77.655 42.732C77.567 42.732 77.4973 42.71 77.446 42.666C77.402 42.6147 77.3653 42.556 77.336 42.49C77.314 42.4167 77.2993 42.3397 77.292 42.259C77.2846 42.1783 77.281 42.105 77.281 42.039C77.281 41.9217 77.2846 41.7897 77.292 41.643ZM78.711 39.41C78.7843 39.4907 78.821 39.6447 78.821 39.872C78.821 39.9527 78.8136 40.0407 78.799 40.136C78.7916 40.2313 78.7806 40.3193 78.766 40.4C78.7513 40.4953 78.7366 40.587 78.722 40.675H77.468C77.512 40.4917 77.567 40.3193 77.633 40.158C77.699 39.9893 77.7723 39.8427 77.853 39.718C77.9336 39.586 78.0216 39.4833 78.117 39.41C78.2196 39.3293 78.3296 39.289 78.447 39.289C78.5496 39.289 78.6376 39.3293 78.711 39.41ZM64.3359 57.9115H59.3594V48.4193H57.0156V59.7943H64.3359V57.9115ZM65.6562 51.3412V59.7943H67.9219V51.3412H65.6562ZM65.8594 48.3178C65.6354 48.5365 65.5234 48.8152 65.5234 49.1537C65.5234 49.4975 65.638 49.7787 65.8672 49.9975C66.1016 50.2162 66.4089 50.3256 66.7891 50.3256C67.1693 50.3256 67.474 50.2162 67.7031 49.9975C67.9375 49.7787 68.0547 49.4975 68.0547 49.1537C68.0547 48.8152 67.9401 48.5365 67.7109 48.3178C67.4818 48.099 67.1745 47.9896 66.7891 47.9896C66.3984 47.9896 66.0885 48.099 65.8594 48.3178ZM71.9766 52.2865L71.9062 51.3412H69.7891V59.7943H72.0469V53.8178C72.3333 53.2865 72.7969 53.0209 73.4375 53.0209C73.901 53.0209 74.2292 53.1303 74.4219 53.349C74.6146 53.5678 74.7109 53.9219 74.7109 54.4115V59.7943H76.9688L76.9609 53.9896C77.2214 53.3438 77.6901 53.0209 78.3672 53.0209C78.8411 53.0209 79.1719 53.1329 79.3594 53.3568C79.5469 53.5756 79.6406 53.9245 79.6406 54.4037V59.7943H81.9062V54.3959C81.9062 53.323 81.6823 52.5209 81.2344 51.9896C80.7865 51.4532 80.1042 51.185 79.1875 51.185C78.0885 51.185 77.2422 51.6146 76.6484 52.474C76.2422 51.6146 75.4948 51.185 74.4062 51.185C73.3854 51.185 72.5755 51.5521 71.9766 52.2865ZM90.3672 58.7787C90.9609 57.9922 91.2578 56.948 91.2578 55.6459V55.5287C91.2578 54.1745 90.9688 53.112 90.3906 52.3412C89.8125 51.5704 89.0026 51.185 87.9609 51.185C87.0807 51.185 86.3672 51.5131 85.8203 52.1693L85.7422 51.3412H83.6484V63.0443H85.9062V59.06C86.4323 59.6537 87.1224 59.9506 87.9766 59.9506C88.9818 59.9506 89.7786 59.56 90.3672 58.7787ZM88.5781 53.6615C88.8594 54.0886 89 54.6954 89 55.4818C89 57.2475 88.4609 58.1303 87.3828 58.1303C86.6745 58.1303 86.1823 57.8516 85.9062 57.2943V53.8334C86.1719 53.2917 86.6589 53.0209 87.3672 53.0209C87.8984 53.0209 88.3021 53.2344 88.5781 53.6615ZM93.5234 58.81C94.3047 59.5704 95.3151 59.9506 96.5547 59.9506C97.2578 59.9506 97.8984 59.8178 98.4766 59.5521C99.0547 59.2813 99.513 58.9063 99.8516 58.4271L98.7422 57.185C98.2526 57.8152 97.5729 58.1303 96.7031 58.1303C96.1406 58.1303 95.6745 57.9636 95.3047 57.6303C94.9401 57.2969 94.7214 56.8542 94.6484 56.3021H100.031V55.3803C100.031 54.0417 99.6979 53.0079 99.0312 52.2787C98.3698 51.5495 97.4609 51.185 96.3047 51.185C95.5339 51.185 94.8464 51.3672 94.2422 51.7318C93.6432 52.0912 93.1797 52.6068 92.8516 53.2787C92.5234 53.9454 92.3594 54.7032 92.3594 55.5521V55.7709C92.3594 57.0365 92.7474 58.0495 93.5234 58.81ZM95.2031 53.4662C95.4844 53.1641 95.849 53.0131 96.2969 53.0131C96.776 53.0131 97.1458 53.1511 97.4062 53.4271C97.6667 53.698 97.8021 54.0834 97.8125 54.5834V54.7631H94.6719C94.75 54.2006 94.9271 53.7683 95.2031 53.4662ZM108.047 57.974H103.914L107.922 52.6771V51.3412H101.148V53.1693H105.008L101.031 58.4193V59.7943H108.047V57.974ZM114.133 59.0365C114.18 59.3386 114.255 59.5912 114.359 59.7943H116.641V59.6615C116.422 59.2501 116.31 58.6433 116.305 57.8412V54.1771C116.305 53.2292 115.997 52.4949 115.383 51.974C114.773 51.448 113.948 51.185 112.906 51.185C112.219 51.185 111.599 51.3047 111.047 51.5443C110.495 51.7787 110.068 52.1042 109.766 52.5209C109.464 52.9376 109.312 53.3907 109.312 53.8803H111.57C111.57 53.5626 111.677 53.3126 111.891 53.1303C112.109 52.948 112.409 52.8568 112.789 52.8568C113.221 52.8568 113.536 52.974 113.734 53.2084C113.938 53.4428 114.039 53.7553 114.039 54.1459V54.6303H113C111.745 54.6355 110.784 54.8777 110.117 55.3568C109.456 55.836 109.125 56.5235 109.125 57.4193C109.125 58.1485 109.396 58.7527 109.938 59.2318C110.484 59.711 111.172 59.9506 112 59.9506C112.875 59.9506 113.586 59.6459 114.133 59.0365ZM113.414 58.0053C113.133 58.1511 112.826 58.224 112.492 58.224C112.148 58.224 111.878 58.1329 111.68 57.9506C111.482 57.7683 111.383 57.5365 111.383 57.2553L111.391 57.1225C111.464 56.3412 112.065 55.9506 113.195 55.9506H114.039V57.4037C113.904 57.6537 113.695 57.8542 113.414 58.0053Z" fill="black"/>
<path d="M42.6953 59.4453H29.0234L27.8761 45.681C27.6109 42.4922 30.127 39.7578 33.3262 39.7578H38.3925C41.5923 39.7578 44.1084 42.4922 43.8427 45.681L42.6953 59.4453Z" fill="white"/>
<path d="M41.9018 41.2858C41.1094 40.8373 40.1939 40.5781 39.2128 40.5781H32.9577C30.3983 40.5781 28.3852 42.7656 28.598 45.3168L29.7754 59.4453H42.4219L43.5692 45.681C43.712 43.9638 43.0442 42.3834 41.9018 41.2858Z" fill="#FFE57F"/>
<path d="M42.1752 41.2858C41.7508 41.0457 41.2893 40.8652 40.8037 40.7444C40.9923 40.8248 41.1777 40.9123 41.3549 41.0124C42.4973 42.1099 43.1651 43.6904 43.0223 45.4076L42.0921 56.1274C41.969 57.5406 40.7862 58.625 39.3676 58.625H29.479L29.5019 59.4453H42.6953L43.8426 45.681C43.9854 43.9638 43.3176 42.3834 42.1752 41.2858Z" fill="#FFD740"/>
<path d="M31.7578 55.0703H43.0601L43.8427 45.681C43.8711 45.3403 43.8613 45.0073 43.829 44.6797H31.7578C31.1541 44.6797 30.6641 45.1697 30.6641 45.7734V53.9766C30.6641 54.5803 31.1541 55.0703 31.7578 55.0703Z" fill="white"/>
<path d="M43.8284 44.6797H43.0081C43.0409 45.0067 43.0502 45.3403 43.0218 45.681L42.2398 55.0703H43.0601L43.8427 45.681C43.8706 45.3403 43.8613 45.0067 43.8284 44.6797Z" fill="#ECEFF1"/>
<path d="M38.3203 35.9297H33.3984V39.7578H38.3203V35.9297Z" fill="#ECEFF1"/>
<path d="M38.5938 40.0312H33.125V35.6562H38.5938V40.0312ZM33.6719 39.4844H38.0469V36.2031H33.6719V39.4844Z" fill="#37474F"/>
<path d="M36.6797 33.1953H35.0391V35.9297H36.6797V33.1953Z" fill="#ECEFF1"/>
<path d="M36.9531 36.2031H34.7656V32.9219H36.9531V36.2031ZM35.3125 35.6562H36.4062V33.4688H35.3125V35.6562Z" fill="#37474F"/>
<path d="M34.7837 32.1016H33.9453C33.6434 32.1016 33.3984 32.3466 33.3984 32.6484C33.3984 32.9503 33.6434 33.1953 33.9453 33.1953H36.2307C37.6214 33.1953 39.0099 33.3102 40.382 33.5388L41.6016 33.7422L42.1484 33.1953L41.7208 33.0728C39.4649 32.4286 37.1298 32.1016 34.7837 32.1016Z" fill="#ECEFF1"/>
<path d="M41.6951 34.0353L40.3366 33.8089C38.9842 33.583 37.6023 33.4688 36.2302 33.4688H33.9453C33.493 33.4688 33.125 33.1007 33.125 32.6484C33.125 32.1962 33.493 31.8281 33.9453 31.8281H34.7837C37.156 31.8281 39.5152 32.1584 41.7957 32.8098L42.6702 33.0602L41.6951 34.0353ZM33.9453 32.375C33.7944 32.375 33.6719 32.4975 33.6719 32.6484C33.6719 32.7994 33.7944 32.9219 33.9453 32.9219H36.2307C37.6329 32.9219 39.0449 33.0389 40.4269 33.2691L41.508 33.4491L41.6267 33.3304C39.4009 32.6966 37.0986 32.375 34.7837 32.375H33.9453Z" fill="#37474F"/>
<path d="M43.0601 55.3438H31.7578C31.0042 55.3438 30.3906 54.7302 30.3906 53.9766V45.7734C30.3906 45.0198 31.0042 44.4062 31.7578 44.4062H43.0081V44.9531H31.7578C31.3055 44.9531 30.9375 45.3212 30.9375 45.7734V53.9766C30.9375 54.4288 31.3055 54.7969 31.7578 54.7969H43.0601V55.3438Z" fill="#37474F"/>
<path d="M46.5234 59.4453H38.3203C37.1123 59.4453 36.1328 58.4659 36.1328 57.2578V53.4297C36.1328 52.2216 37.1123 51.2422 38.3203 51.2422H46.5234C47.7315 51.2422 48.7109 52.2216 48.7109 53.4297V57.2578C48.7109 58.4659 47.7315 59.4453 46.5234 59.4453Z" fill="white"/>
<path d="M38.5938 52.0625C37.6876 52.0625 36.9531 52.797 36.9531 53.7031V58.0781C36.9531 58.4708 37.0647 58.8339 37.2462 59.1522C37.5645 59.3332 37.9282 59.4453 38.3203 59.4453H46.5234C47.7315 59.4453 48.7109 58.4659 48.7109 57.2578V53.4297C48.7109 53.037 48.5988 52.6739 48.4178 52.3556C48.0995 52.1746 47.7364 52.0625 47.3438 52.0625H38.5938Z" fill="#FF8A80"/>
<path d="M48.4178 52.3557C48.2357 52.2523 48.0372 52.1746 47.8288 52.1243C47.8666 52.2802 47.8906 52.4415 47.8906 52.6094V57.2578C47.8906 58.0131 47.2787 58.625 46.5234 58.625H37.5C37.3321 58.625 37.1708 58.601 37.0149 58.5632C37.0652 58.7716 37.1423 58.9701 37.2463 59.1522C37.5645 59.3332 37.9282 59.4453 38.3203 59.4453H46.5234C47.7315 59.4453 48.7109 58.4659 48.7109 57.2578V53.4297C48.7109 53.0371 48.5988 52.6739 48.4178 52.3557Z" fill="#FF5252"/>
<path d="M46.5234 59.7188H38.3203C36.9635 59.7188 35.8594 58.6146 35.8594 57.2578V53.4297C35.8594 52.0729 36.9635 50.9688 38.3203 50.9688H46.5234C47.8802 50.9688 48.9844 52.0729 48.9844 53.4297V57.2578C48.9844 58.6146 47.8802 59.7188 46.5234 59.7188ZM38.3203 51.5156C37.2648 51.5156 36.4062 52.3742 36.4062 53.4297V57.2578C36.4062 58.3133 37.2648 59.1719 38.3203 59.1719H46.5234C47.5789 59.1719 48.4375 58.3133 48.4375 57.2578V53.4297C48.4375 52.3742 47.5789 51.5156 46.5234 51.5156H38.3203Z" fill="#37474F"/>
<path d="M45.1562 56.9844H39.6875C39.3856 56.9844 39.1406 56.7394 39.1406 56.4375V54.25C39.1406 53.9481 39.3856 53.7031 39.6875 53.7031H45.1562C45.4581 53.7031 45.7031 53.9481 45.7031 54.25V56.4375C45.7031 56.7394 45.4581 56.9844 45.1562 56.9844Z" fill="#FF5252"/>
<path d="M29.0234 59.4453H23.5547C23.2528 59.4453 23.0078 59.2003 23.0078 58.8984V43.5859C23.0078 43.2841 23.2528 43.0391 23.5547 43.0391H29.0234C29.3253 43.0391 29.5703 43.2841 29.5703 43.5859V58.8984C29.5703 59.2003 29.3253 59.4453 29.0234 59.4453Z" fill="white"/>
<path d="M23.8281 43.8594V59.4453H29.0234C29.3253 59.4453 29.5703 59.2003 29.5703 58.8984V43.8594H23.8281Z" fill="#84FFFF"/>
<path d="M28.75 43.8594V58.625H23.8281V59.4453H29.0234C29.3253 59.4453 29.5703 59.2003 29.5703 58.8984V43.8594H28.75Z" fill="#18FFFF"/>
<path d="M29.5703 46.3203H24.1016V56.1641H29.5703V46.3203Z" fill="#CCFF90"/>
<path d="M29.5703 46.3203H28.75V56.1641H29.5703V46.3203Z" fill="#B2FF59"/>
<path d="M44.115 45.7034C44.2479 44.1077 43.7027 42.5168 42.6182 41.3388C41.5338 40.1603 39.9938 39.4844 38.3925 39.4844H33.3263C31.725 39.4844 30.1845 40.1603 29.1006 41.3388C28.8501 41.6112 28.6313 41.9076 28.4399 42.2188H29.0234C29.0464 42.2188 29.0688 42.2242 29.0918 42.2259C29.2187 42.0465 29.3532 41.872 29.5031 41.7091C30.4841 40.6427 31.8776 40.0312 33.3263 40.0312H38.3925C39.8412 40.0312 41.2346 40.6427 42.2157 41.7085C43.1968 42.7749 43.6901 44.2143 43.5703 45.658L43.1733 50.4219H43.7218L44.115 45.7034Z" fill="#37474F"/>
<path d="M29.0234 59.7188H23.5547C23.1024 59.7188 22.7344 59.3507 22.7344 58.8984V43.5859C22.7344 43.1337 23.1024 42.7656 23.5547 42.7656H29.0234C29.4757 42.7656 29.8438 43.1337 29.8438 43.5859V58.8984C29.8438 59.3507 29.4757 59.7188 29.0234 59.7188ZM23.5547 43.3125C23.4038 43.3125 23.2812 43.435 23.2812 43.5859V58.8984C23.2812 59.0494 23.4038 59.1719 23.5547 59.1719H29.0234C29.1744 59.1719 29.2969 59.0494 29.2969 58.8984V43.5859C29.2969 43.435 29.1744 43.3125 29.0234 43.3125H23.5547Z" fill="#37474F"/>
<path d="M27.9297 39.7578H24.6484V43.0391H27.9297V39.7578Z" fill="#ECEFF1"/>
<path d="M28.2031 43.3125H24.375V39.4844H28.2031V43.3125ZM24.9219 42.7656H27.6562V40.0312H24.9219V42.7656Z" fill="#37474F"/>
<path d="M27.3828 37.0234H25.1953V39.7578H27.3828V37.0234Z" fill="#ECEFF1"/>
<path d="M27.6562 40.0312H24.9219V36.75H27.6562V40.0312ZM25.4688 39.4844H27.1094V37.2969H25.4688V39.4844Z" fill="#37474F"/>
<path d="M25.4688 40.0312H24.9219V42.7656H25.4688V40.0312Z" fill="white"/>
<path d="M27.6562 40.0312H27.1094V42.7656H27.6562V40.0312Z" fill="#CFD8DC"/>
<path d="M27.1094 37.2969H26.5625V39.4844H27.1094V37.2969Z" fill="#CFD8DC"/>
<path d="M27.1094 37.8438H26.5625V38.3906H27.1094V37.8438Z" fill="#37474F"/>
<path d="M28.75 56.4375H23.8281V46.0469H28.75V46.5938H24.375V55.8906H28.75V56.4375Z" fill="#37474F"/>
<path d="M28.75 50.6953H27.9297V49.6016H26.8359V50.6953H25.7422V51.7891H26.8359V52.8828H27.9297V51.7891H28.75V50.6953Z" fill="#ECEFF1"/>
<path d="M28.2031 53.1562H26.5625V52.0625H25.4688V50.4219H26.5625V49.3281H28.2031V50.4219H28.75V50.9688H27.6562V49.875H27.1094V50.9688H26.0156V51.5156H27.1094V52.6094H27.6562V51.5156H28.75V52.0625H28.2031V53.1562Z" fill="#37474F"/>
<path d="M50.625 36.4766C51.078 36.4766 51.4453 36.1093 51.4453 35.6562C51.4453 35.2032 51.078 34.8359 50.625 34.8359C50.172 34.8359 49.8047 35.2032 49.8047 35.6562C49.8047 36.1093 50.172 36.4766 50.625 36.4766Z" fill="white"/>
<path d="M50.625 36.75C50.0218 36.75 49.5312 36.2595 49.5312 35.6562C49.5312 35.053 50.0218 34.5625 50.625 34.5625C51.2282 34.5625 51.7188 35.053 51.7188 35.6562C51.7188 36.2595 51.2282 36.75 50.625 36.75ZM50.625 35.1094C50.3237 35.1094 50.0781 35.3549 50.0781 35.6562C50.0781 35.9576 50.3237 36.2031 50.625 36.2031C50.9263 36.2031 51.1719 35.9576 51.1719 35.6562C51.1719 35.3549 50.9263 35.1094 50.625 35.1094Z" fill="#37474F"/>
<path d="M48.1641 44.6797C48.4661 44.6797 48.7109 44.4348 48.7109 44.1328C48.7109 43.8308 48.4661 43.5859 48.1641 43.5859C47.862 43.5859 47.6172 43.8308 47.6172 44.1328C47.6172 44.4348 47.862 44.6797 48.1641 44.6797Z" fill="white"/>
<path d="M48.1641 44.9531C47.7118 44.9531 47.3438 44.5851 47.3438 44.1328C47.3438 43.6805 47.7118 43.3125 48.1641 43.3125C48.6163 43.3125 48.9844 43.6805 48.9844 44.1328C48.9844 44.5851 48.6163 44.9531 48.1641 44.9531ZM48.1641 43.8594C48.0131 43.8594 47.8906 43.9819 47.8906 44.1328C47.8906 44.2837 48.0131 44.4062 48.1641 44.4062C48.315 44.4062 48.4375 44.2837 48.4375 44.1328C48.4375 43.9819 48.315 43.8594 48.1641 43.8594Z" fill="#37474F"/>
<path d="M48.7109 32.1016C49.013 32.1016 49.2578 31.8567 49.2578 31.5547C49.2578 31.2527 49.013 31.0078 48.7109 31.0078C48.4089 31.0078 48.1641 31.2527 48.1641 31.5547C48.1641 31.8567 48.4089 32.1016 48.7109 32.1016Z" fill="white"/>
<path d="M48.7109 32.375C48.2587 32.375 47.8906 32.007 47.8906 31.5547C47.8906 31.1024 48.2587 30.7344 48.7109 30.7344C49.1632 30.7344 49.5312 31.1024 49.5312 31.5547C49.5312 32.007 49.1632 32.375 48.7109 32.375ZM48.7109 31.2812C48.56 31.2812 48.4375 31.4038 48.4375 31.5547C48.4375 31.7056 48.56 31.8281 48.7109 31.8281C48.8619 31.8281 48.9844 31.7056 48.9844 31.5547C48.9844 31.4038 48.8619 31.2812 48.7109 31.2812Z" fill="#37474F"/>
<path d="M45.7031 34.8359C46.1562 34.8359 46.5234 34.4687 46.5234 34.0156C46.5234 33.5626 46.1562 33.1953 45.7031 33.1953C45.2501 33.1953 44.8828 33.5626 44.8828 34.0156C44.8828 34.4687 45.2501 34.8359 45.7031 34.8359Z" fill="white"/>
<path d="M45.7031 35.1094C45.0999 35.1094 44.6094 34.6188 44.6094 34.0156C44.6094 33.4124 45.0999 32.9219 45.7031 32.9219C46.3063 32.9219 46.7969 33.4124 46.7969 34.0156C46.7969 34.6188 46.3063 35.1094 45.7031 35.1094ZM45.7031 33.4688C45.4018 33.4688 45.1562 33.7143 45.1562 34.0156C45.1562 34.317 45.4018 34.5625 45.7031 34.5625C46.0045 34.5625 46.25 34.317 46.25 34.0156C46.25 33.7143 46.0045 33.4688 45.7031 33.4688Z" fill="#37474F"/>
<path d="M45.4297 40.8516C46.3358 40.8516 47.0703 40.117 47.0703 39.2109C47.0703 38.3048 46.3358 37.5703 45.4297 37.5703C44.5236 37.5703 43.7891 38.3048 43.7891 39.2109C43.7891 40.117 44.5236 40.8516 45.4297 40.8516Z" fill="white"/>
<path d="M46.8882 39.9629C46.6153 40.4906 46.0646 40.8516 45.4297 40.8516C44.5235 40.8516 43.7891 40.1171 43.7891 39.2109C43.7891 38.3048 44.5235 37.5703 45.4297 37.5703C45.5227 37.5703 45.614 37.578 45.7031 37.5933L46.8882 39.9629Z" fill="white"/>
<path d="M45.4297 41.125C44.3742 41.125 43.5156 40.2664 43.5156 39.2109C43.5156 38.1555 44.3742 37.2969 45.4297 37.2969C45.5385 37.2969 45.6452 37.3062 45.7485 37.3231L45.6577 37.8623C45.5834 37.8503 45.5073 37.8438 45.4297 37.8438C44.6761 37.8438 44.0625 38.4573 44.0625 39.2109C44.0625 39.9645 44.6761 40.5781 45.4297 40.5781C45.9432 40.5781 46.4091 40.2943 46.6454 39.8377L47.1316 40.0887C46.8007 40.728 46.1483 41.125 45.4297 41.125Z" fill="#37474F"/>
<path d="M47.6172 39.2109C48.2212 39.2109 48.7109 38.7212 48.7109 38.1172C48.7109 37.5131 48.2212 37.0234 47.6172 37.0234C47.0131 37.0234 46.5234 37.5131 46.5234 38.1172C46.5234 38.7212 47.0131 39.2109 47.6172 39.2109Z" fill="white"/>
<path d="M47.6172 39.4844C46.8636 39.4844 46.25 38.8708 46.25 38.1172C46.25 37.3636 46.8636 36.75 47.6172 36.75C48.3708 36.75 48.9844 37.3636 48.9844 38.1172C48.9844 38.8708 48.3708 39.4844 47.6172 39.4844ZM47.6172 37.2969C47.1649 37.2969 46.7969 37.6649 46.7969 38.1172C46.7969 38.5695 47.1649 38.9375 47.6172 38.9375C48.0695 38.9375 48.4375 38.5695 48.4375 38.1172C48.4375 37.6649 48.0695 37.2969 47.6172 37.2969Z" fill="#37474F"/>
<path d="M26.0156 37.2969H25.4688V39.4844H26.0156V37.2969Z" fill="white"/>
<path d="M51.1719 59.1719H27.9297V59.7188H51.1719V59.1719Z" fill="#37474F"/>
<path d="M52.2656 59.1719H51.7188V59.7188H52.2656V59.1719Z" fill="#37474F"/>
</svg>
