<?xml version="1.0" ?><!DOCTYPE svg  PUBLIC '-//W3C//DTD SVG 1.1//EN'  'http://www.w3.org/Graphics/SVG/1.1/DTD/svg11.dtd'><svg enable-background="new 0 0 64 64" height="64px" version="1.1" viewBox="0 0 64 64" width="64px" xml:space="preserve" xmlns="http://www.w3.org/2000/svg" xmlns:xlink="http://www.w3.org/1999/xlink"><g id="sanitizer_x2C__personal_care_products"><path d="M41.5,57.5h-25l-2.098-25.169C13.917,26.5,18.518,21.5,24.368,21.5h9.264   c5.851,0,10.452,5,9.966,10.831L41.5,57.5z" fill="#FFFFFF" id="XMLID_2201_"/><path d="M40.049,24.294C38.6,23.474,36.926,23,35.132,23H23.694c-4.68,0-8.361,4-7.972,8.665   L17.875,57.5H41l2.098-25.169C43.359,29.191,42.138,26.301,40.049,24.294z" fill="#FFE57F" id="XMLID_2204_"/><path d="M40.549,24.294c-0.776-0.439-1.62-0.769-2.508-0.99c0.345,0.147,0.684,0.307,1.008,0.49   c2.089,2.007,3.31,4.897,3.049,8.037l-1.701,19.602C40.172,54.017,38.009,56,35.415,56H17.333l0.042,1.5H41.5l2.098-25.169   C43.859,29.191,42.638,26.301,40.549,24.294z" fill="#FFD740" id="XMLID_2207_"/><path d="M21.5,49.5h20.667l1.431-17.169c0.052-0.623,0.034-1.232-0.025-1.831H21.5   c-1.104,0-2,0.896-2,2v15C19.5,48.604,20.396,49.5,21.5,49.5z" fill="#FFFFFF" id="XMLID_2307_"/><path d="M43.572,30.5h-1.5c0.06,0.598,0.077,1.208,0.025,1.831L40.667,49.5h1.5l1.431-17.169   C43.649,31.708,43.632,31.098,43.572,30.5z" fill="#ECEFF1" id="XMLID_2344_"/><g><rect fill="#ECEFF1" height="7" id="XMLID_409_" width="9" x="24.5" y="14.5"/><path d="M34,22H24v-8h10V22z M25,21h8v-6h-8V21z" fill="#37474F"/></g><g><rect fill="#ECEFF1" height="5" id="XMLID_408_" width="3" x="27.5" y="9.5"/><path d="M31,15h-4V9h4V15z M28,14h2v-4h-2V14z" fill="#37474F"/></g><g><path d="M27.033,7.5H25.5c-0.552,0-1,0.448-1,1l0,0c0,0.552,0.448,1,1,1h4.179    c2.543,0,5.082,0.21,7.591,0.628L39.5,10.5l1-1l-0.782-0.224C35.593,8.098,31.323,7.5,27.033,7.5z" fill="#ECEFF1" id="XMLID_407_"/><path d="M39.671,11.036l-2.484-0.414c-2.473-0.413-5-0.622-7.509-0.622H25.5C24.673,10,24,9.327,24,8.5    S24.673,7,25.5,7h1.533c4.338,0,8.652,0.604,12.822,1.795l1.599,0.458L39.671,11.036z M25.5,8C25.224,8,25,8.224,25,8.5    S25.224,9,25.5,9h4.179c2.564,0,5.146,0.214,7.673,0.635l1.977,0.329l0.217-0.217C35.476,8.588,31.266,8,27.033,8H25.5z" fill="#37474F"/></g><path d="M42.167,50H21.5c-1.378,0-2.5-1.122-2.5-2.5v-15c0-1.378,1.122-2.5,2.5-2.5h20.572v1H21.5   c-0.827,0-1.5,0.673-1.5,1.5v15c0,0.827,0.673,1.5,1.5,1.5h20.667V50z" fill="#37474F"/><g id="XMLID_2261_"><path d="M48.5,57.5h-15c-2.209,0-4-1.791-4-4v-7c0-2.209,1.791-4,4-4h15c2.209,0,4,1.791,4,4v7    C52.5,55.709,50.709,57.5,48.5,57.5z" fill="#FFFFFF" id="XMLID_2205_"/><path d="M34,44c-1.657,0-3,1.343-3,3v8c0,0.718,0.204,1.382,0.536,1.964    c0.582,0.331,1.247,0.536,1.964,0.536h15c2.209,0,4-1.791,4-4v-7c0-0.718-0.205-1.382-0.536-1.964C51.382,44.205,50.718,44,50,44    H34z" fill="#FF8A80" id="XMLID_2200_"/><path d="M51.964,44.536c-0.333-0.189-0.696-0.331-1.077-0.423C50.956,44.398,51,44.693,51,45v8.5    c0,1.381-1.119,2.5-2.5,2.5H32c-0.307,0-0.602-0.044-0.887-0.113c0.092,0.381,0.233,0.744,0.423,1.077    c0.582,0.331,1.247,0.536,1.964,0.536h15c2.209,0,4-1.791,4-4v-7C52.5,45.782,52.295,45.118,51.964,44.536z" fill="#FF5252" id="XMLID_2210_"/><path d="M48.5,58h-15c-2.481,0-4.5-2.019-4.5-4.5v-7c0-2.481,2.019-4.5,4.5-4.5h15c2.481,0,4.5,2.019,4.5,4.5v7    C53,55.981,50.981,58,48.5,58z M33.5,43c-1.93,0-3.5,1.57-3.5,3.5v7c0,1.93,1.57,3.5,3.5,3.5h15c1.93,0,3.5-1.57,3.5-3.5v-7    c0-1.93-1.57-3.5-3.5-3.5H33.5z" fill="#37474F"/><path d="M46,53H36c-0.552,0-1-0.448-1-1v-4c0-0.552,0.448-1,1-1h10c0.552,0,1,0.448,1,1v4    C47,52.552,46.552,53,46,53z" fill="#FF5252" id="XMLID_2206_"/></g><g id="XMLID_2203_"><g id="XMLID_2202_"><path d="M16.5,57.5h-10c-0.552,0-1-0.448-1-1v-28c0-0.552,0.448-1,1-1h10c0.552,0,1,0.448,1,1     v28C17.5,57.052,17.052,57.5,16.5,57.5z" fill="#FFFFFF" id="XMLID_2193_"/><path d="M7,29v28.5h9.5c0.552,0,1-0.448,1-1V29H7z" fill="#84FFFF" id="XMLID_2194_"/><path d="M16,29v27H7v1.5h9.5c0.552,0,1-0.448,1-1V29H16z" fill="#18FFFF" id="XMLID_2197_"/><rect fill="#CCFF90" height="18" id="XMLID_2199_" width="10" x="7.5" y="33.5"/><rect fill="#B2FF59" height="18" id="XMLID_2192_" width="1.5" x="16" y="33.5"/><g><path d="M44.096,32.372c0.243-2.918-0.754-5.827-2.737-7.981C39.376,22.236,36.56,21,33.632,21h-9.264      c-2.928,0-5.745,1.236-7.727,3.391c-0.458,0.498-0.858,1.04-1.208,1.609H16.5c0.042,0,0.083,0.01,0.125,0.013      c0.232-0.328,0.478-0.647,0.752-0.945C19.171,23.118,21.719,22,24.368,22h9.264c2.649,0,5.197,1.118,6.991,3.067      c1.794,1.95,2.696,4.582,2.477,7.222L42.374,41h1.003L44.096,32.372z" fill="#37474F"/></g><path d="M16.5,58h-10C5.673,58,5,57.327,5,56.5v-28C5,27.673,5.673,27,6.5,27h10c0.827,0,1.5,0.673,1.5,1.5v28     C18,57.327,17.327,58,16.5,58z M6.5,28C6.224,28,6,28.224,6,28.5v28C6,56.776,6.224,57,6.5,57h10c0.276,0,0.5-0.224,0.5-0.5v-28     c0-0.276-0.224-0.5-0.5-0.5H6.5z" fill="#37474F"/><g><rect fill="#ECEFF1" height="6" id="XMLID_406_" width="6" x="8.5" y="21.5"/><path d="M15,28H8v-7h7V28z M9,27h5v-5H9V27z" fill="#37474F"/></g><g><rect fill="#ECEFF1" height="5" id="XMLID_405_" width="4" x="9.5" y="16.5"/><path d="M14,22H9v-6h5V22z M10,21h3v-4h-3V21z" fill="#37474F"/></g><rect fill="#FFFFFF" height="5" id="XMLID_2191_" width="1" x="9" y="22"/><rect fill="#CFD8DC" height="5" id="XMLID_2142_" width="1" x="13" y="22"/><rect fill="#CFD8DC" height="4" id="XMLID_2141_" width="1" x="12" y="17"/><rect fill="#37474F" height="1" id="XMLID_2281_" width="1" x="12" y="18"/></g><polygon fill="#37474F" points="16,52 7,52 7,33 16,33 16,34 8,34 8,51 16,51   "/><g><polygon fill="#ECEFF1" id="XMLID_404_" points="16,41.5 14.5,41.5 14.5,39.5 12.5,39.5 12.5,41.5 10.5,41.5 10.5,43.5      12.5,43.5 12.5,45.5 14.5,45.5 14.5,43.5 16,43.5    "/><polygon fill="#37474F" points="15,46 12,46 12,44 10,44 10,41 12,41 12,39 15,39 15,41 16,41 16,42 14,42 14,40 13,40 13,42      11,42 11,43 13,43 13,45 14,45 14,43 16,43 16,44 15,44    "/></g></g><g><circle cx="56" cy="14" fill="#FFFFFF" id="XMLID_282_" r="1.5"/><path d="M56,16c-1.103,0-2-0.897-2-2s0.897-2,2-2s2,0.897,2,2S57.103,16,56,16z M56,13c-0.551,0-1,0.449-1,1    s0.449,1,1,1s1-0.449,1-1S56.551,13,56,13z" fill="#37474F"/></g><g><circle cx="51.5" cy="29.5" fill="#FFFFFF" id="XMLID_281_" r="1"/><path d="M51.5,31c-0.827,0-1.5-0.673-1.5-1.5s0.673-1.5,1.5-1.5s1.5,0.673,1.5,1.5S52.327,31,51.5,31z M51.5,29    c-0.276,0-0.5,0.224-0.5,0.5s0.224,0.5,0.5,0.5s0.5-0.224,0.5-0.5S51.776,29,51.5,29z" fill="#37474F"/></g><g><circle cx="52.5" cy="6.5" fill="#FFFFFF" id="XMLID_155_" r="1"/><path d="M52.5,8C51.673,8,51,7.327,51,6.5S51.673,5,52.5,5S54,5.673,54,6.5S53.327,8,52.5,8z M52.5,6    C52.224,6,52,6.224,52,6.5S52.224,7,52.5,7S53,6.776,53,6.5S52.776,6,52.5,6z" fill="#37474F"/></g><g><circle cx="47" cy="11" fill="#FFFFFF" id="XMLID_154_" r="1.5"/><path d="M47,13c-1.103,0-2-0.897-2-2s0.897-2,2-2s2,0.897,2,2S48.103,13,47,13z M47,10c-0.551,0-1,0.449-1,1    s0.449,1,1,1s1-0.449,1-1S47.551,10,47,10z" fill="#37474F"/></g><circle cx="46.5" cy="20.5" fill="#FFFFFF" id="XMLID_2140_" r="3"/><g><path d="M49.167,21.875C48.668,22.84,47.661,23.5,46.5,23.5c-1.657,0-3-1.343-3-3s1.343-3,3-3    c0.17,0,0.337,0.014,0.5,0.042L49.167,21.875z" fill="#FFFFFF" id="XMLID_153_"/><path d="M46.5,24c-1.93,0-3.5-1.57-3.5-3.5s1.57-3.5,3.5-3.5c0.199,0,0.394,0.017,0.583,0.048l-0.166,0.986    C46.781,18.012,46.642,18,46.5,18c-1.378,0-2.5,1.122-2.5,2.5s1.122,2.5,2.5,2.5c0.939,0,1.791-0.519,2.223-1.354l0.889,0.459    C49.007,23.274,47.814,24,46.5,24z" fill="#37474F"/></g><g><circle cx="50.5" cy="18.5" fill="#FFFFFF" id="XMLID_152_" r="2"/><path d="M50.5,21c-1.378,0-2.5-1.122-2.5-2.5s1.122-2.5,2.5-2.5s2.5,1.122,2.5,2.5S51.878,21,50.5,21z M50.5,17    c-0.827,0-1.5,0.673-1.5,1.5s0.673,1.5,1.5,1.5s1.5-0.673,1.5-1.5S51.327,17,50.5,17z" fill="#37474F"/></g><rect fill="#FFFFFF" height="4" id="XMLID_2190_" width="1" x="10" y="17"/><g><polygon fill="#84FFFF" id="XMLID_151_" points="51.5,57.5 57,57.5 41.5,57.5   "/><rect fill="#37474F" height="1" width="42.5" x="14.5" y="57"/></g><rect fill="#37474F" height="1" id="XMLID_2255_" width="1" x="58" y="57"/></g></svg>